name Run_40002_GRF.mot
datacolumns 19
datarows 20
range 2.055 2.074
endheader
time	     ground_force_vx	     ground_force_vy	     ground_force_vz	     ground_force_px	     ground_force_py	     ground_force_pz	   l_ground_force_vx	   l_ground_force_vy	   l_ground_force_vz	   l_ground_force_px	   l_ground_force_py	   l_ground_force_pz	     ground_torque_x	     ground_torque_y	     ground_torque_z	   l_ground_torque_x	   l_ground_torque_y	   l_ground_torque_z	
2.055	          0.00000000	          0.00000000	          0.00000000	          0.00000000	          0.00000000	          0.00000000	        209.55377200	       1161.01818800	        -39.86306400	          0.75906900	          0.00000000	         -0.35395400	          0.00000000	          0.00000000	          0.00000000	         -0.00000000	          7.43706300	         -0.00000000	
2.056	          0.00000000	          0.00000000	          0.00000000	          0.00000000	          0.00000000	          0.00000000	        211.53477500	       1140.86022900	        -40.15650900	          0.75599200	          0.00000000	         -0.35382100	          0.00000000	          0.00000000	          0.00000000	         -0.00000000	          7.57779000	         -0.00000000	
2.057	          0.00000000	          0.00000000	          0.00000000	          0.00000000	          0.00000000	          0.00000000	        213.21489000	       1120.57214400	        -40.40071500	          0.75294700	          0.00000000	         -0.35368600	          0.00000000	          0.00000000	          0.00000000	         -0.00000000	          7.70920300	         -0.00000000	
2.058	          0.00000000	          0.00000000	          0.00000000	          0.00000000	          0.00000000	          0.00000000	        214.60739100	       1100.15271000	        -40.59754600	          0.74993200	          0.00000000	         -0.35354800	          0.00000000	          0.00000000	          0.00000000	         -0.00000000	          7.83101400	         -0.00000000	
2.059	          0.00000000	          0.00000000	          0.00000000	          0.00000000	          0.00000000	          0.00000000	        215.72670000	       1079.60180700	        -40.74931300	          0.74693900	          0.00000000	         -0.35340900	          0.00000000	          0.00000000	          0.00000000	         -0.00000000	          7.94296400	         -0.00000000	
2.06	          0.00000000	          0.00000000	          0.00000000	          0.00000000	          0.00000000	          0.00000000	        216.58802800	       1058.92041000	        -40.85870700	          0.74396400	          0.00000000	         -0.35327200	          0.00000000	          0.00000000	          0.00000000	         -0.00000000	          8.04482100	         -0.00000000	
2.061	          0.00000000	          0.00000000	          0.00000000	          0.00000000	          0.00000000	          0.00000000	        217.20701600	       1038.11145000	        -40.92870300	          0.74100100	          0.00000000	         -0.35313600	          0.00000000	          0.00000000	          0.00000000	         -0.00000000	          8.13637800	         -0.00000000	
2.062	          0.00000000	          0.00000000	          0.00000000	          0.00000000	          0.00000000	          0.00000000	        217.59935000	       1017.17889400	        -40.96249000	          0.73804300	          0.00000000	         -0.35300500	          0.00000000	          0.00000000	          0.00000000	         -0.00000000	          8.21745900	         -0.00000000	
2.063	          0.00000000	          0.00000000	          0.00000000	          0.00000000	          0.00000000	          0.00000000	        217.78045700	        996.12933300	        -40.96336700	          0.73508500	          0.00000000	         -0.35287900	          0.00000000	          0.00000000	          0.00000000	         -0.00000000	          8.28791400	         -0.00000000	
2.064	          0.00000000	          0.00000000	          0.00000000	          0.00000000	          0.00000000	          0.00000000	        217.76516700	        974.97113000	        -40.93466200	          0.73212100	          0.00000000	         -0.35276100	          0.00000000	          0.00000000	          0.00000000	         -0.00000000	          8.34762200	         -0.00000000	
2.065	          0.00000000	          0.00000000	          0.00000000	          0.00000000	          0.00000000	          0.00000000	        217.56745900	        953.71508800	        -40.87965000	          0.72914400	          0.00000000	         -0.35265200	          0.00000000	          0.00000000	          0.00000000	         -0.00000000	          8.39648800	         -0.00000000	
2.066	          0.00000000	          0.00000000	          0.00000000	          0.00000000	          0.00000000	          0.00000000	        217.20010400	        932.37408400	        -40.80145300	          0.72615200	          0.00000000	         -0.35255400	          0.00000000	          0.00000000	          0.00000000	         -0.00000000	          8.43444800	         -0.00000000	
2.067	          0.00000000	          0.00000000	          0.00000000	          0.00000000	          0.00000000	          0.00000000	        216.67453000	        910.96313500	        -40.70296900	          0.72313800	          0.00000000	         -0.35246800	          0.00000000	          0.00000000	          0.00000000	         -0.00000000	          8.46146300	         -0.00000000	
2.068	          0.00000000	          0.00000000	          0.00000000	          0.00000000	          0.00000000	          0.00000000	        216.00053400	        889.49951200	        -40.58680300	          0.72010000	          0.00000000	         -0.35239600	          0.00000000	          0.00000000	          0.00000000	         -0.00000000	          8.47752200	         -0.00000000	
2.069	          0.00000000	          0.00000000	          0.00000000	          0.00000000	          0.00000000	          0.00000000	        215.18623400	        868.00213600	        -40.45521500	          0.71703600	          0.00000000	         -0.35233800	          0.00000000	          0.00000000	          0.00000000	         -0.00000000	          8.48264000	         -0.00000000	
2.07	          0.00000000	          0.00000000	          0.00000000	          0.00000000	          0.00000000	          0.00000000	        214.23793000	        846.49169900	        -40.31005500	          0.71394300	          0.00000000	         -0.35229700	          0.00000000	          0.00000000	          0.00000000	         -0.00000000	          8.47685900	         -0.00000000	
2.071	          0.00000000	          0.00000000	          0.00000000	          0.00000000	          0.00000000	          0.00000000	        213.16011000	        824.99017300	        -40.15274800	          0.71082200	          0.00000000	         -0.35227200	          0.00000000	          0.00000000	          0.00000000	         -0.00000000	          8.46024800	         -0.00000000	
2.072	          0.00000000	          0.00000000	          0.00000000	          0.00000000	          0.00000000	          0.00000000	        211.95556600	        803.52069100	        -39.98426400	          0.70767400	          0.00000000	         -0.35226500	          0.00000000	          0.00000000	          0.00000000	         -0.00000000	          8.43289900	         -0.00000000	
2.073	          0.00000000	          0.00000000	          0.00000000	          0.00000000	          0.00000000	          0.00000000	        210.62551900	        782.10699500	        -39.80511500	          0.70450000	          0.00000000	         -0.35227600	          0.00000000	          0.00000000	          0.00000000	         -0.00000000	          8.39493000	         -0.00000000	
2.074	          0.00000000	          0.00000000	          0.00000000	          0.00000000	          0.00000000	          0.00000000	        209.16984600	        760.77349900	        -39.61536400	          0.70130400	          0.00000000	         -0.35230400	          0.00000000	          0.00000000	          0.00000000	         -0.00000000	          8.34648400	         -0.00000000	
